<svg xmlns="http://www.w3.org/2000/svg" width="100" height="100" viewBox="0 0 100 100">
	<def>
		<g id="meaning">
            <path style="fill: var(--sc-1, #ec6237)" d="M50 100c27.4 0 49.6-22.4 49.6-50S77.4 0 50 0C22.6 0 .4 22.4.4 50s22.2 50 49.6 50z" /><path style="fill: var(--sc-2, #e5d8ca)" d="M50 93.1C26.4 93.1 7.2 73.8 7.2 50S26.4 6.9 50 6.9 92.8 26.2 92.8 50 73.6 93.1 50 93.1zm0-81.3c-20.9 0-37.9 17.1-37.9 38.2s17 38.2 37.9 38.2S87.9 71.1 87.9 50 70.9 11.8 50 11.8z"/><path style="fill: var(--sc-2, #e5d8ca)" d="M63.9 48.3c3.1 0 5.6-2.6 5.6-5.8 0-3.2-2.5-5.8-5.6-5.8-3.1 0-5.6 2.6-5.6 5.8 0 3.2 2.5 5.8 5.6 5.8zM36.1 48.3c3.1 0 5.6-2.6 5.6-5.8 0-3.2-2.5-5.8-5.6-5.8s-5.6 2.6-5.6 5.8c0 3.2 2.5 5.8 5.6 5.8zM50 76.5c-10.5 0-19.6-7.2-22.1-17.5l4.8-1.2c2 8.1 9.1 13.7 17.3 13.7 8.2 0 15.4-5.6 17.3-13.7l4.8 1.2C69.6 69.4 60.5 76.5 50 76.5z"/>
		</g>
        <g id="awesome" data-v="100 43">            
            <path style="fill: var(--sc-1, #ec6237)" d="M76.7 42.7C71.3 33.1 61 27.1 50 27.1s-21.3 6-26.7 15.6L0 29.5C10.2 11.5 29.3.3 50 .3s39.8 11.2 50 29.2L76.7 42.7z" /><path style="fill: var(--sc-2, #e5d8ca)" d="m31.8 21.6 1.3-.7-5.7-5.2-1.2.7 1.3 7.6 1.3-.7-.4-1.8 2-1.1 1.4 1.2zm-4.2-4 1.9 1.9-1.4.7-.5-2.6zM38.1 11.5l.5 5.5-2.7-4-1.1.4.1 4.8-2.9-4.8-1.4.4 4.1 6.4 1.3-.4v-4.5l2.6 3.7 1.3-.4-.5-7.6-1.3.5zM41.6 10.8l.9 7.2 4.6-.6-.1-1.2-3.2.4-.2-2 2.5-.3-.2-1.2-2.5.3-.2-1.5 3.1-.4-.2-1.2-4.5.5zM52.9 11.4c-.4-.9-1.1-1.3-2.1-1.4-1.1 0-2 .8-2 1.9 0 2.3 3 2.1 3 3.3 0 .7-.4.9-1 .9-.8 0-1.2-.7-1.4-1.5l-1.1.7c.2 1.1 1.1 2.1 2.5 2.1s2.4-.8 2.4-2.2c0-2.2-3.1-2.1-3.1-3.3 0-.4.3-.7.7-.7.4 0 .7.2 1 .8l1.1-.6zM58.5 10.9c-1.8-.4-3.6.5-4.1 3-.5 2.5.9 4 2.7 4.3 1.8.4 3.6-.5 4.1-3 .5-2.5-.9-4-2.7-4.3zm-.2 1.2c1.1.2 1.9 1.1 1.6 2.8-.3 1.7-1.4 2.3-2.5 2-1.1-.2-1.9-1.1-1.6-2.8.3-1.7 1.4-2.2 2.5-2zM61.8 18.9l1.3.5 1.7-4.2-.2 4.1.9.4 2.8-3-1.7 4.2 1.3.5 2.8-6.7-1.5-.7-3.3 3.5.2-4.9-1.4-.6-2.9 6.9zM73.6 16.5l-3.9 6.1 3.9 2.5.7-1.1-2.7-1.8 1.1-1.7 2.1 1.4.7-1.1-2.1-1.4.8-1.3 2.7 1.7.7-1.1-4-2.2z"/>
		</g>
        <g id="great-work">
            <path fill="none" d="M0 0h100v100H0z"/><path d="M50 100c27.6 0 50-22.4 50-50S77.6 0 50 0 0 22.4 0 50s22.4 50 50 50z" style="fill: var(--sc-1, #ec6237)" /><path style="fill: var(--sc-2, #e5d8ca)" d="M8.6 56.4h.6v3.4h-.6z"/><path transform="rotate(-30.009 6.694 56.837)" style="fill: var(--sc-2, #e5d8ca)" d="M5 56.5h3.4v.6H5z"/><path transform="rotate(-59.96 6.692 54.27)" style="fill: var(--sc-2, #e5d8ca)" d="M6.4 52.6H7V56h-.6z"/><path style="fill: var(--sc-2, #e5d8ca)" d="M8.6 51.3h.6v3.4h-.6z"/><path transform="rotate(-30.009 11.128 54.278)" style="fill: var(--sc-2, #e5d8ca)" d="M9.4 54h3.4v.6H9.4z"/><path transform="rotate(-59.96 11.126 56.83)" style="fill: var(--sc-2, #e5d8ca)" d="M10.8 55.1h.6v3.4h-.6z"/><path style="fill: var(--sc-2, #e5d8ca)" d="M90.8 56.4h.6v3.4h-.6z"/><path transform="rotate(-30.068 88.881 56.836)" style="fill: var(--sc-2, #e5d8ca)" d="M87.2 56.5h3.4v.6h-3.4z"/><path transform="rotate(-59.954 88.877 54.276)" style="fill: var(--sc-2, #e5d8ca)" d="M88.6 52.6h.6V56h-.6z"/><path style="fill: var(--sc-2, #e5d8ca)" d="M90.8 51.3h.6v3.4h-.6z"/><path transform="rotate(-30.068 93.315 54.277)" style="fill: var(--sc-2, #e5d8ca)" d="M91.6 54H95v.6h-3.4z"/><path transform="rotate(-59.954 93.31 56.835)" style="fill: var(--sc-2, #e5d8ca)" d="M93 55.1h.6v3.4H93z"/><path style="fill: var(--sc-2, #e5d8ca)" d="M11.2 46.4c.8-.3 1.4-.7 1.8-1.3.5-.6.8-1.3.9-2 .2-1 .1-1.8-.3-2.5s-.9-1.3-1.8-1.6l-.7 1.4c.5.3.8.6 1 1 .2.4.3.9.2 1.5-.1.5-.3.9-.6 1.2-.3.3-.7.6-1.2.7-.5.1-1.1.2-1.7 0-.7-.1-1.2-.3-1.6-.6-.4-.3-.7-.7-.9-1.1-.2-.4-.2-.9-.1-1.4.1-.6.3-1 .7-1.3.3-.3.8-.5 1.3-.6l-.1-1.6c-.9.1-1.6.4-2.2.9-.6.6-1 1.3-1.1 2.3-.1.8-.1 1.5.1 2.2.2.7.7 1.3 1.3 1.8.6.5 1.4.8 2.4 1 1 .3 1.8.3 2.6 0zM8.4 35.4c.5.6 1.2 1.2 2.1 1.6.9.4 1.8.6 2.6.5.8-.1 1.5-.3 2.1-.8.6-.5 1-1 1.4-1.8.3-.7.5-1.4.4-2.2 0-.7-.3-1.4-.8-2.1-.5-.6-1.2-1.2-2.1-1.6-.9-.4-1.8-.6-2.6-.5-.8.1-1.5.3-2.1.8-.6.5-1 1-1.4 1.8-.3.7-.5 1.4-.4 2.2.1.8.3 1.5.8 2.1zm1-3.6c.2-.4.5-.8.8-1 .4-.3.8-.4 1.3-.4s1.1.1 1.7.4c.6.3 1.1.6 1.4 1 .3.4.5.8.6 1.3 0 .4 0 .9-.2 1.3s-.5.8-.8 1c-.4.3-.8.4-1.3.4s-1.1-.1-1.7-.4c-.6-.3-1.1-.6-1.4-1-.3-.4-.5-.8-.6-1.3 0-.4 0-.8.2-1.3zM19.8 28.8l-4.7-3.7 6.8 1 1.1-1.4-7.2-5.6-1 1.3 4.7 3.7-6.8-1-1.1 1.4 7.2 5.6 1-1.3zM20.9 20.4c.6.8 1.3 1.3 2 1.6.7.3 1.5.4 2.2.3.7-.1 1.4-.4 1.9-.9.4-.3.7-.7.9-1.1.2-.4.2-.8.2-1.1l.7.7 1.1-.9-2.9-3.7-2.6 2.1.9 1.1 1.3-1.1c.2.4.3.8.3 1.3s-.3.9-.8 1.3c-.6.5-1.2.7-1.9.6-.7-.1-1.4-.6-2-1.4-.6-.8-.9-1.5-.9-2.2 0-.7.4-1.3 1-1.8.8-.6 1.7-.7 2.8-.1l.9-1.3c-.7-.5-1.5-.8-2.3-.8-.8 0-1.6.3-2.4.9-.6.5-1 1.1-1.3 1.8-.3.7-.4 1.4-.2 2.2.1.9.4 1.7 1.1 2.5zM38.1 5.7l-.8 9.5-4-2.5c.4-.4.7-.8.7-1.4.1-.5 0-1-.3-1.6-.3-.7-.8-1.2-1.5-1.4-.6-.2-1.4-.1-2.1.3l-3 1.4 4 8.2 1.5-.7L31 14l.8-.4 3.9 2.5 1.7-.8 1.8-.4.1-2.2 2.8-.7 1.2 1.9 1.8-.4-5.2-8.1-1.8.3zm-5.8 5.6c-.1.2-.3.4-.6.6l-1.5.7-.9-1.8 1.5-.7c.3-.1.6-.2.8-.1.2.1.4.3.6.6.2.2.2.5.1.7zm7-.4.2-3.3 1.7 2.8-1.9.5zM50 4l-6.7.5.1 1.5 2.5-.2.5 7.5 1.7-.1-.5-7.5 2.5-.2L50 4zM56.8 10.3c-.2 1.3-.8 1.9-1.9 1.7-1.1-.1-1.6-.9-1.4-2.2l.7-5.6-1.7-.2-.7 5.6c-.1 1.2 0 2.1.6 2.8.5.7 1.3 1.1 2.3 1.2 1 .1 1.9-.1 2.6-.6.7-.5 1.1-1.4 1.2-2.5l.7-5.6-1.7-.2-.7 5.6zM65.2 14.6l-3.6-1.2L64 6.3l-1.6-.5-2.9 8.6 5.2 1.8.5-1.6zM66.6 17l1.6-1.5 2.5 1.4-.5 2.2 1.6.9 1.9-9.4-1.5-.8-7.2 6.3 1.6.9zm5.2-4.8-.7 3.2-1.7-1 2.4-2.2zM72.9 21.1l1.3 1.1 4.8-5.8 1.9 1.6 1-1.2-5.2-4.3-1 1.2 1.9 1.6-4.7 5.8zM83.2 18.4l-6.7 6.1 1.1 1.2 6.7-6.1-1.1-1.2zM80.7 26c-.4.7-.5 1.4-.5 2.1.1.7.3 1.4.7 2.1.4.7 1 1.2 1.6 1.5.6.4 1.4.5 2.2.5.8 0 1.6-.4 2.5-.9.9-.5 1.5-1.2 1.8-1.9.4-.7.5-1.4.5-2.1-.1-.7-.3-1.4-.7-2.1-.4-.7-1-1.2-1.6-1.5-.6-.4-1.4-.5-2.2-.5-.8 0-1.6.4-2.5.9-.8.5-1.4 1.2-1.8 1.9zm2.7-.5c.6-.4 1.1-.6 1.6-.6.5-.1 1 0 1.4.2.4.2.7.5 1 .9.3.4.4.8.4 1.3 0 .4-.1.9-.4 1.3-.3.4-.7.9-1.3 1.2-.6.4-1.1.6-1.6.6-.5.1-1 0-1.4-.2-.4-.2-.7-.5-1-.9-.3-.4-.4-.8-.4-1.3 0-.4.1-.9.4-1.3.4-.4.8-.8 1.3-1.2zM84.3 36.4l5.7-1.9-4.6 5.1.6 1.7 8.6-3-.6-1.6-5.7 1.9 4.6-5.1-.6-1.7-8.6 3 .6 1.6zM95.6 44c-.1-.5-.2-.9-.5-1.3s-.6-.6-1-.8c-.4-.2-.8-.2-1.3-.2-.6.1-1.1.3-1.4.7s-.6.8-.8 1.4l-.1.4c-.1.4-.3.8-.4 1-.1.2-.2.4-.4.6-.2.2-.3.3-.6.3-.4 0-.6 0-.8-.2-.2-.2-.3-.5-.4-.8-.1-.5.1-.9.4-1.2.3-.3.7-.6 1.2-.8l-1-1.2c-.4.2-.9.4-1.2.7-.3.3-.6.7-.8 1.2-.2.5-.2 1-.1 1.5.1.6.2 1 .5 1.4.3.4.6.7 1.1.9.4.2.9.3 1.5.2.5-.1.9-.2 1.2-.4.3-.2.5-.5.7-.8.2-.3.3-.7.5-1.1.1-.5.3-.8.4-1 .1-.2.2-.5.4-.6.2-.2.3-.3.6-.3.2 0 .4 0 .6.2.2.2.3.4.3.6.1.6-.2 1-.8 1.3l1 1.2c.9-.7 1.4-1.7 1.2-2.9zM88.5 65.6c-.9-.5-1.7-.7-2.5-.7s-1.5.2-2.1.6c-.6.4-1.1.9-1.4 1.6-.2.5-.4.9-.4 1.3s.1.8.3 1.1l-.9-.3-.7 1.3 4 2.1 1.5-2.9-1.2-.7-.8 1.5c-.4-.3-.6-.6-.8-1.1-.1-.5-.1-1 .2-1.5.4-.7.9-1.1 1.5-1.3.7-.2 1.5 0 2.4.5.9.5 1.5 1 1.7 1.7.2.7.2 1.3-.2 2-.5.9-1.3 1.3-2.6 1.2l-.4 1.5c.9.2 1.7.1 2.5-.2.8-.3 1.4-.9 1.8-1.8.4-.7.5-1.4.5-2.1 0-.7-.2-1.5-.7-2.1-.1-.7-.8-1.2-1.7-1.7zM78.8 73.1l3 2.6-.6.7-4.6-.7-1.3 1.3 4.7.8c-.2.5-.3 1-.2 1.5.1.5.4.9.9 1.3.6.5 1.2.7 1.9.7.7-.1 1.3-.4 1.9-1.1l2.2-2.5-6.9-5.9-1 1.3zm4.1 3.5 1.5 1.3-1.1 1.2c-.2.2-.4.4-.7.4-.3 0-.5-.1-.8-.3-.3-.2-.4-.5-.4-.7 0-.2.1-.5.3-.7l1.2-1.2zM70.2 80.9l1 1.2 3.2-2.5 1.5 2-2.5 1.9 1 1.2 2.5-1.9 1.2 1.5-3.1 2.4 1 1.2 4.4-3.4-5.6-7.2-4.6 3.6zM68.2 82.1l.4 2.2-2.6 1.3-1.5-1.6-1.6.8 6.8 6.8 1.5-.8-1.3-9.5-1.7.8zm-1.1 4.6 1.7-.9.5 3.2-2.2-2.3zM63.4 92.3l-2.1-7.2-1.6.5 2.1 7.2-2.4.7.4 1.5 6.5-1.9-.4-1.5-2.5.7zM37.5 90.3v-5.6l-1.6-.5-5 8 1.7.5 3.4-5.9-.1 6 1.4.4 3.3-5-.5 6.8 1.7.5.4-9.4-1.6-.5-3.1 4.7zM32 84.6c.1-.8-.1-1.5-.4-2.2-.4-.6-.9-1.2-1.5-1.6-.7-.4-1.4-.7-2.1-.7-.7-.1-1.4.1-2.1.5-.7.4-1.3 1-1.9 1.8-.7.8-1 1.6-1 2.4-.1.8.1 1.5.4 2.2.4.6.9 1.2 1.5 1.6.7.4 1.4.7 2.1.7.7.1 1.4-.1 2.1-.5.7-.4 1.3-1 1.9-1.8.6-.8.9-1.7 1-2.4zm-1.7-.2c-.1.5-.3 1.1-.7 1.6s-.8 1-1.2 1.3c-.5.3-.9.4-1.3.4s-.9-.2-1.3-.4c-.4-.3-.7-.6-.9-1-.2-.4-.3-.9-.2-1.4.1-.5.3-1.1.6-1.6.4-.6.8-1 1.2-1.3.4-.3.9-.4 1.3-.4s.9.2 1.3.4c.4.3.7.6.9 1s.3.9.3 1.4zM24.3 76.4l-2.8 2.7-.6-.6L22 74l-1.3-1.4-1.2 4.6c-.5-.2-1-.3-1.5-.2-.5.1-1 .3-1.4.7-.6.5-.9 1.1-.9 1.8s.3 1.3.9 2l2.3 2.4 6.6-6.3-1.2-1.2zm-5.4 5.2-1.1-1.2c-.2-.2-.3-.5-.4-.7 0-.3.1-.5.4-.7.3-.2.5-.4.8-.3.3 0 .5.2.7.4l1.1 1.2-1.5 1.3zM19.5 70.6l-3.7 2.3 1.9-5.1-1.1-1.8-2.2 6L9 71l1.1 1.8 4.5.9-2.9 1.8.9 1.4 7.7-4.8-.8-1.5zM15.5 63.5c-.3-.1-.5-.1-.8 0-.3.1-.5.3-.6.6-.1.3-.1.5 0 .8.1.3.3.5.6.6.3.1.6.1.8 0 .3-.1.5-.3.6-.6.1-.3.1-.5 0-.8-.2-.3-.4-.5-.6-.6zM12.8 64.6l-5.6 1.9.8 2 5.3-2.6-.5-1.3zM76.6 47c-2.3-2.3-6.1-2.3-8.4 0L65 50.2c-.2-1.2-.7-2.3-1.7-3.3-1.4-1.4-3.2-1.9-5-1.7.2-1.8-.3-3.6-1.7-5-.9-.9-2-1.5-3.3-1.7l7.2-7.2c2.3-2.3 2.3-6.1 0-8.4-1.1-1.1-2.6-1.7-4.2-1.7s-3.1.6-4.2 1.7l-20 20.2-.4.4c-7.8 7.8-7.7 20.5.2 28.3 3.8 3.8 8.8 5.9 14.2 5.9h.1c5.3 0 10.3-2.1 14-5.8l16.5-16.5c1.1-1.1 1.7-2.6 1.7-4.2 0-1.5-.6-3-1.8-4.2zm-17.4.7c.9 0 1.8.4 2.5 1 .7.7 1 1.5 1 2.5 0 .9-.4 1.8-1 2.4l-6.3 6.3-.1.1c-1.4 1.4-3.6 1.4-4.9 0-.4-.4-.7-.9-.9-1.5.5-.3 1-.6 1.4-1.1 1.3-1.3 1.8-3 1.7-4.7l4.1-4.1c.7-.6 1.5-.9 2.5-.9zM52.5 41c.9 0 1.8.4 2.5 1 1.4 1.4 1.4 3.6 0 4.9l-3.2 3.2c-.2-.4-.5-.8-.9-1.1l-4-4 3.1-3c.7-.6 1.5-1 2.5-1zM54 24.7c.7-.7 1.5-1 2.5-1 .9 0 1.8.4 2.5 1 1.4 1.4 1.4 3.6 0 4.9L48.3 40.3l-3 3-.6-.6c-1.8-1.8-3.8-2.7-5.9-2.7L54 24.7zm20.9 29L58.4 70.2c-3.3 3.3-7.6 5.1-12.3 5.1H46c-4.7 0-9.1-1.9-12.4-5.2-6.9-6.9-6.9-18-.1-24.8 1.2-1.2 2.4-2 3.5-2.4 2.8-1 5 .8 5.9 1.6l6.3 6.3c1.4 1.4 1.4 3.6 0 4.9-1.4 1.4-3.6 1.4-4.9 0l-4.8-4.8-.8-.8c-.3-.3-.5-.6-.9-.9L36.2 51l1.5 1.5c1.4 1.4 2.2 3.3 2.2 5.3s-.8 3.9-2.2 5.3l1.7 1.7c1.9-1.9 2.9-4.4 2.9-7v-.7l.2.2c1.2 1.2 2.7 1.7 4.2 1.7h.4c.3 1 .8 1.8 1.5 2.6 1.2 1.2 2.7 1.7 4.2 1.7s3.1-.6 4.2-1.7l6.3-6.3.1-.1 6.5-6.5c1.4-1.4 3.6-1.4 4.9 0 .7.7 1 1.5 1 2.5.1 1-.2 1.9-.9 2.5z"/>
        </g>
        <g id="asterisk">
            <polygon style="fill: var(--sc-1, #ec6237)" points="99.9,41 71.6,41 91.6,21 78.9,8.3 58.9,28.4 58.9,0 41.1,0 41.1,28.4 21.1,8.3 8.4,21 28.4,41 0.1,41 0.1,59 28.4,59 8.4,79 21.1,91.7 41.1,71.6 41.1,100 58.9,100 58.9,71.6 78.9,91.7 91.6,79 71.6,59 99.9,59 "/>
        </g>
        <g id="epic">
            <path fill="none" d="M0 0h100v100H0z"/><path style="fill: var(--sc-1, #ec6237)" d="m44.4 100 53.7-1.9 1.9-53.7L55.6 0 0 55.6 44.4 100z" /><path style="fill: var(--sc-2, #e5d8ca)" d="m48.3 37.6 6.8 6.8-1.9 1.9-4.8-4.8-2.3 2.3 3.8 3.8-1.9 2-3.8-3.8-3 3 4.9 4.9-1.9 1.9-7-7 11.1-11zM57 46.3l4.2 4.2c1.1 1.1 1.7 2.3 1.7 3.5 0 1.2-.5 2.3-1.6 3.3-1 1-2.1 1.5-3.3 1.6-1.2 0-2.4-.5-3.5-1.7l-2.1-2.1-4.4 4.4-2.1-2.1L57 46.3zm-.8 9c.5.5.9.7 1.4.7s1-.2 1.5-.7c.5-.5.7-1 .7-1.5s-.3-1-.7-1.4l-2-2-2.9 2.9 2 2zM66.1 55.5l2.1 2.1-11.1 11-2.1-2.1 11.1-11zM62 72.4c-.4-1.2-.3-2.5 0-3.8.4-1.3 1.2-2.6 2.4-3.8 1.2-1.2 2.5-2 3.8-2.4 1.3-.4 2.6-.4 3.8 0 1.2.4 2.3 1 3.3 2 1.2 1.2 1.9 2.5 2.1 3.9.2 1.4-.1 2.7-.9 4.1L74.2 71c.4-.8.5-1.6.4-2.4-.1-.8-.5-1.5-1.2-2.2-.6-.6-1.3-1-2-1.2-.8-.2-1.6-.1-2.4.1-.8.3-1.7.8-2.5 1.7-.8.8-1.4 1.7-1.7 2.5-.3.8-.3 1.6-.1 2.4.2.8.6 1.4 1.2 2 .7.7 1.5 1.1 2.2 1.2s1.6 0 2.4-.4l1.4 2.3c-1.3.8-2.7 1.1-4.1.9-1.4-.2-2.7-.9-3.9-2.1-.9-1-1.5-2.1-1.9-3.4z"/>
        </g>
        <g id="ribbon-inspire" data-v="100 49">            
            <path fill="none" d="M0 .2h100v48.6H0z"/><path style="fill: var(--sc-1, #ec6237)" d="M92.9 7.3c-2.6-2.6-5.7-4.6-9.2-5.8C80.3.3 76.6-.1 72.3.3 68.5.6 64.8 1.5 61.4 3c-3.3 1.5-6.4 3.5-9.7 6.3-.8.7-1.6 1.4-2.5 2.3-2.3-1.7-4.8-3.6-7.4-5.3-3.4-2.3-6.2-3.7-9-4.7C26-.7 18.4 0 12.3 3.4 5.8 7.1 1.2 13.7.2 21.2-.9 28.9 1.8 36.6 7.3 42c2.6 2.6 5.9 4.5 9.3 5.7 2.5.8 5.2 1.2 8.2 1.2.8 0 1.6 0 2.4-.1 6.9-.5 13.5-3.1 19.7-7.7 1.3-.9 2.5-2 3.8-3.1 2.4 1.7 4.8 3.3 7.2 4.8 3.7 2.2 6.8 3.7 9.9 4.7 6.8 2.2 14.1 1.5 20.1-1.9 6.4-3.7 10.8-10.3 11.9-17.6 1-7.7-1.6-15.4-6.9-20.7zM77.3 28.6c-1.7 1-3.9.4-7.4-1.7-1.3-.8-2.7-1.7-3.9-2.7.3-.3.7-.6 1-.8 2.9-2.2 5.2-3.4 7.3-3.6 2.3-.2 4.4 1.1 5.1 3.1.8 2.1-.2 4.6-2.1 5.7zm-43.1-4c-.4.3-.7.6-1.1 1-2.7 2.2-5.1 3.4-7.3 3.6-2.3.3-4.4-1-5.2-3-.8-2.1 0-4.3 1.9-5.5.9-.5 1.9-.9 2.9-.9h.4c1.5.1 3 1 4.2 1.7 1.4 1 2.9 2 4.2 3.1z"/><path style="fill: var(--sc-2, #e5d8ca)" d="M75.7 2.5c-10 0-17.7 3.6-26.2 12.3-11-8.2-16.8-12.2-25.3-12.2-12.1 0-21.9 9.9-21.9 22s9.9 21.9 22 21.9c7.2 0 15.3-1.4 26.2-11.6 11 8 18.6 11.5 25.2 11.5 12.1 0 21.9-9.9 21.9-22S87.8 2.5 75.7 2.5zm.1 42.1c-6.4 0-13.9-3.5-25-11.8-2.1-1.6-11.7-9.6-11.8-9.7-5.1-4.2-9.6-7.7-14-7.4-5 .3-8.8 4-8.8 8.9s4 8.8 8.9 8.8c6.5 0 12.4-5.9 14.1-7.8 2.5 2.1 7.7 6.4 9.9 8.2-10.3 9.5-18 10.9-24.7 10.9-11.1 0-20.2-9-20.2-20.1 0-11.1 9-20.2 20.1-20.2 8.1 0 13.7 4 24.8 12.2 1.6 1.2 5.1 3.9 8.2 6.2 3.1 2.4 5 3.8 5.3 4 .3.2.6.5 1 .7 3 2.2 7.5 5.5 11.6 5.7 2.2.1 4.4-.6 6-2.2 1.8-1.7 2.9-4.1 2.9-6.7 0-4.9-4-8.8-8.9-8.8-6.2 0-12.4 5.9-14.2 7.8-.8-.6-1.6-1.2-2.5-1.9-2.6-2-5.5-4.2-7.4-5.6C59 7.7 66.2 4.3 75.7 4.3c11.1 0 20.2 9 20.2 20.1 0 11.1-9 20.1-20.1 20.2zM37.7 24.5c-1.6 1.7-7.1 7.1-12.7 7.1-3.9 0-7.1-3.3-7.1-7s3-6.8 7.1-7.1h.4c3.6 0 7.7 3.2 12.3 7zm24.6-.1c1.8-1.8 7.5-7 12.7-7 3.9 0 7.1 3.1 7.1 7 0 2-.8 4-2.3 5.3-1.3 1.2-3 1.8-4.7 1.7-3.5-.2-7.8-3.3-10.6-5.4-.4-.3-.7-.5-1-.7-.1 0-.5-.3-1.2-.9z"/><path style="fill: var(--sc-2, #e5d8ca)" d="m15.3 40-1-.7 3.6-5.6 1 .7-3.6 5.6zM11.5 37.2l-.7-1.1 2.2-4.5-3.6 2.5-.7-1 5.5-3.8.7 1.1-2.2 4.5 3.6-2.5.7 1-5.5 3.8zM13.7 27.7c-.1.3-.3.6-.5.9-.2.3-.5.4-.9.6l-.8-.9c.4-.2.7-.4.9-.6.2-.3.3-.6.2-.9 0-.3-.1-.5-.3-.6s-.4-.2-.6-.1c-.2 0-.3.1-.4.2s-.2.3-.3.5c-.1.2-.1.4-.2.7l-.1.3c-.1.4-.3.7-.6 1s-.6.4-1 .5c-.3.1-.6 0-.9-.1-.3-.1-.5-.3-.7-.5-.2-.3-.3-.6-.4-.9-.1-.9.1-1.6.9-2l.8.9c-.4.2-.6.6-.6 1 0 .2.1.3.2.4s.3.2.5.1.3-.1.4-.2c.1-.1.2-.3.3-.5.1-.2.1-.4.2-.8.1-.3.2-.6.3-.8.1-.2.3-.4.5-.6.2-.2.5-.3.8-.3.4-.1.8 0 1.1.1s.6.3.8.6c.2.3.3.6.4 1 .1.3.1.7 0 1zM6.9 22.5l.6-2.4c.2-.7.5-1.1.9-1.4.4-.3 1-.3 1.6-.2.6.1 1 .4 1.3.9.3.4.3 1 .2 1.6l-.3 1.2 2.5.6-.3 1.2-6.5-1.5zm3.4-1.7c.1-.3 0-.5-.1-.7-.1-.2-.3-.3-.6-.4-.3-.1-.5 0-.7.1-.2.1-.3.3-.4.6l-.3 1.2 1.8.4.3-1.2zM9.3 15.6l.7-1 5.6 3.6-.7 1-5.6-3.6zM12 11.9l1.9-1.5c.5-.4 1-.5 1.5-.5.5.1.9.3 1.2.8.3.4.4.7.4 1.1 0 .4-.1.7-.3 1.1l3.3 1.3-1.1.8-3.2-1.2-.5.4 1.7 2.3-1 .7-3.9-5.3zm3.6.7c.2-.1.3-.3.3-.5s0-.4-.2-.6c-.2-.2-.3-.3-.5-.3s-.4.1-.6.2l-1 .7.9 1.2 1.1-.7zM18.8 7.9l4-.9.2 1.1-2.8.6.3 1.4 2.3-.5.2 1.1-2.3.5.4 1.8 2.9-.6.2 1.1-4.1.9-1.3-6.5zM30.5 11.7c-.1-.2-.1-.4 0-.6.1-.2.2-.4.4-.5.2-.1.4-.1.6 0 .2.1.4.2.5.4.1.2.1.4 0 .6-.1.2-.2.4-.4.5-.2.1-.4.1-.6 0-.3-.1-.4-.2-.5-.4zM39.8 12.3l1 .7-3.9 5.4-1-.7 3.9-5.4zM42.2 14.1l1 .8-.9 4.9 2.8-3.4.9.8-4.3 5.1-1-.8.9-4.9-2.7 3.4-.9-.8 4.2-5.1zM43.6 23.7c-.1-.3-.2-.7-.2-1 0-.4.1-.7.3-1l1.2.2c-.2.4-.3.7-.3 1.1 0 .3.1.6.4.8.2.2.4.3.6.3.2 0 .4-.1.6-.3.1-.1.2-.3.2-.4 0-.2 0-.3-.1-.5s-.2-.4-.3-.7l-.1-.3c-.2-.4-.2-.8-.2-1.1 0-.4.2-.7.5-1.1.2-.3.5-.4.8-.5.3-.1.6-.1.9-.1.3.1.6.2.9.4.7.6.9 1.3.7 2.1l-1.2-.2c.2-.5.1-.8-.2-1.1-.1-.1-.3-.2-.5-.2s-.3.1-.4.2-.2.3-.2.5 0 .4.1.5c.1.2.2.4.3.7.1.3.2.6.3.8.1.3.1.5 0 .8-.1.3-.2.5-.4.8-.3.3-.6.5-.9.6-.3.1-.7.1-1 0-.4-.1-.7-.3-1-.5-.5-.2-.7-.5-.8-.8zM50.9 21.4l1.9 1.6c.5.4.8.9.8 1.4 0 .5-.1 1-.5 1.5s-.8.7-1.3.8c-.5.1-1-.1-1.6-.5l-1-.8-1.6 2-1-.8 4.3-5.2zm.1 3.8c.2.2.4.3.6.2.2 0 .4-.1.6-.4.2-.2.3-.4.2-.7 0-.2-.1-.4-.4-.6l-1-.8-1 1.5 1 .8zM55.2 24.9l1 .8-4.1 5.2-1-.8 4.1-5.2zM57.3 26.5l2 1.4c.5.4.8.8.9 1.3.1.5 0 1-.4 1.4-.3.4-.6.6-.9.7-.4.1-.7.1-1.1 0l-.3 3.5-1.1-.8.2-3.4-.5-.4-1.7 2.3-1-.7 3.9-5.3zm.4 3.6c.2.1.4.2.6.2.2 0 .4-.1.5-.3.2-.2.2-.4.2-.6 0-.2-.2-.3-.4-.5l-1-.7-.9 1.2 1 .7zM61.9 29.8l3.5 2.2-.6 1-2.4-1.5-.8 1.2 1.9 1.2-.6 1-1.9-1.2-1 1.5 2.5 1.6-.6 1-3.5-2.3 3.5-5.7zM69.2 38c-.1-.2-.1-.4 0-.6.1-.2.2-.4.4-.5.2-.1.4-.1.6 0 .2.1.4.2.5.4.1.2.1.4 0 .6-.1.2-.2.4-.4.5-.2.1-.4.1-.6 0-.2 0-.4-.2-.5-.4zM76.6 35.9l1.2-.2 1.3 6.5-1.2.2-1.3-6.5zM78.6 35.6l1.1-.7 4.4 2.4-2.3-3.7 1-.6 3.5 5.6-1.1.7-4.4-2.4 2.3 3.7-1 .6-3.5-5.6zM88.8 35.8c-.3.2-.7.2-1 .2-.4 0-.7-.1-1-.2l.1-1.2c.4.2.7.2 1.1.2.3 0 .6-.2.8-.4.2-.2.2-.4.2-.6 0-.2-.1-.4-.3-.5-.1-.1-.3-.1-.4-.1-.2 0-.3.1-.5.1-.2.1-.4.2-.7.3l-.3.1c-.4.2-.8.3-1.1.3-.4 0-.7-.1-1.1-.4-.3-.2-.5-.5-.6-.7-.1-.3-.2-.6-.1-.9 0-.3.2-.6.4-.9.6-.7 1.3-1 2.1-.8l-.1 1.2c-.5-.2-.8-.1-1.1.3-.2 0-.2.2-.2.4s.1.3.2.4c.1.1.3.1.5.1s.3-.1.5-.1c.2-.1.4-.2.7-.4.3-.2.6-.3.8-.4.2-.1.5-.1.8-.1.3 0 .6.2.8.4.3.2.5.5.7.9.1.3.2.7.1 1-.1.4-.2.7-.5 1-.2.4-.5.6-.8.8zM85.7 29.2l.6-2.4c.2-.7.5-1.1.9-1.4.4-.3 1-.3 1.6-.2.6.1 1 .4 1.3.9.3.4.3 1 .2 1.6l-.4 1.3 2.5.6-.3 1.2-6.4-1.6zm3.4-1.7c.1-.3 0-.5-.1-.7-.1-.2-.3-.3-.6-.4-.3-.1-.5 0-.7.1-.2.1-.3.3-.4.6l-.3 1.2 1.7.4.4-1.2zM86.4 24.4l-.1-1.2 6.6-.5.1 1.2-6.6.5zM86.4 22.2l-.9-2.2c-.3-.6-.3-1.1-.1-1.6.2-.5.5-.8 1.1-1 .4-.2.8-.2 1.2-.1.4.1.7.3 1 .6l2-2.9.5 1.3-2 2.8.3.6 2.6-1.1.5 1.1-6.2 2.5zm1.5-3.3c-.1-.2-.2-.4-.4-.5s-.4-.1-.6 0c-.2.1-.4.2-.4.4-.1.2 0 .4.1.6l.5 1.1 1.4-.6-.6-1zM84.5 17.9l-3.2-2.6.7-.9 2.2 1.8.9-1.1-1.8-1.5.7-.9 1.8 1.5 1.2-1.4-2.3-1.8.7-.9 3.2 2.7-4.1 5.1z"/>
        </g>
        <g id="one-to-watch">
            <path style="fill: var(--sc-1, #ec6237)" d="M50,0C22.4,0,0,22.4,0,50s22.4,50,50,50c27.6,0,50-22.4,50-50S77.6,0,50,0z M50,69.3 c-10.6,0-19.3-8.7-19.3-19.3c0-10.6,8.7-19.3,19.3-19.3c10.6,0,19.3,8.7,19.3,19.3C69.3,60.6,60.6,69.3,50,69.3z"/>
            <g style="fill: var(--sc-2, #e5d8ca)">
                <path d="M50,30.7c-10.6,0-19.3,8.7-19.3,19.3c0,10.6,8.7,19.3,19.3,19.3c10.6,0,19.3-8.7,19.3-19.3 C69.3,39.4,60.6,30.7,50,30.7z M33.2,50c0-9.3,7.6-16.8,16.8-16.8c9.3,0,16.8,7.6,16.8,16.8c0,9.3-7.6,16.8-16.8,16.8 C40.7,66.8,33.2,59.3,33.2,50z M50,68.1"/>
                <path d="M21,39.4c1.3,0.9,2.6,1.3,3.9,1.4c1.2,0.1,2.4-0.2,3.4-0.7c1-0.6,1.8-1.4,2.5-2.4c0.7-1,1-2.1,1.1-3.3 c0.1-1.1-0.2-2.3-0.8-3.4c-0.6-1.1-1.6-2.1-2.9-2.9c-1.3-0.9-2.6-1.3-3.9-1.4c-1.2-0.1-2.4,0.2-3.4,0.7c-1,0.6-1.8,1.4-2.5,2.4 c-0.7,1-1,2.1-1.1,3.3c-0.1,1.1,0.2,2.3,0.8,3.4C18.7,37.6,19.7,38.5,21,39.4L21,39.4z M20.5,31.1c0.4-0.6,0.9-1.1,1.5-1.4 c0.6-0.3,1.3-0.4,2.1-0.4c0.8,0.1,1.7,0.4,2.6,1c0.9,0.6,1.6,1.2,2,1.9c0.4,0.7,0.6,1.4,0.6,2.1c0,0.7-0.3,1.4-0.7,2 c-0.4,0.6-0.9,1.1-1.5,1.4c-0.6,0.3-1.3,0.4-2.1,0.4c-0.8-0.1-1.7-0.4-2.6-1c-0.9-0.6-1.6-1.2-2-1.9c-0.4-0.7-0.6-1.4-0.6-2.1 C19.9,32.4,20.1,31.7,20.5,31.1z"/>
                <path d="M37.3,30.6l-4.2-8.4l8.9,6.1l2.5-1.3l-6.4-12.7l-2.4,1.2l4.2,8.4l-8.9-6.1L28.6,19L35,31.8L37.3,30.6z"/>
                <path d="M55,24.5l-6.4,0l0-3.9l4.9,0l0-2.4l-4.9,0l0-3l6.2,0l0-2.4l-8.8,0l-0.1,14.2l9,0L55,24.5z"/>
                <path d="M68.3,35.9l8.9-7.7l2.6,3l1.8-1.6l-6.9-8l-1.8,1.6l2.6,3l-8.9,7.7L68.3,35.9z"/>
                <path d="M86.3,40.4c-0.3-1.2-0.9-2.2-1.7-3.1c-0.8-0.8-1.8-1.4-3-1.7c-1.2-0.3-2.6-0.2-4.1,0.2c-1.5,0.4-2.8,1-3.7,1.9 c-0.9,0.9-1.5,1.9-1.7,3c-0.3,1.1-0.2,2.3,0.1,3.5c0.3,1.2,0.9,2.2,1.7,3.1c0.8,0.8,1.8,1.4,3,1.7c1.2,0.3,2.6,0.3,4.1-0.2 c1.5-0.4,2.7-1,3.7-1.9c0.9-0.9,1.5-1.9,1.7-3C86.6,42.7,86.6,41.6,86.3,40.4L86.3,40.4z M83.9,43.1c-0.2,0.7-0.6,1.3-1.2,1.8 c-0.6,0.5-1.4,0.9-2.5,1.2c-1,0.3-2,0.3-2.8,0.2c-0.8-0.2-1.4-0.5-1.9-1c-0.5-0.5-0.8-1.1-1-1.8c-0.2-0.7-0.2-1.4,0-2.1 c0.2-0.7,0.6-1.3,1.2-1.8c0.6-0.5,1.4-0.9,2.5-1.2c1-0.3,2-0.3,2.8-0.2c0.8,0.2,1.4,0.5,1.9,1c0.5,0.5,0.8,1.1,1,1.8 C84.1,41.7,84.1,42.4,83.9,43.1L83.9,43.1z"/>
                <path d="M68.1,64.5l4.1,7.8l-7.7-4.1l-1.9,1.9L70,82.8l2-2l-5.7-9.1l8.2,4.5l1.6-1.6l-4.4-8.2l9.1,5.8l2-2l-12.7-7.5 L68.1,64.5z"/>
                <path d="M58.7,75.1l-4.4,1.1l-1.8-3l-2.8,0.7l8.2,12.6l2.6-0.7l1.2-15l-2.8,0.7L58.7,75.1L58.7,75.1z M58.4,82.8 l-2.7-4.4l2.9-0.7L58.4,82.8z"/>
                <path d="M48.4,73l-2.6-0.3l-1.5,11.7l-3.9-0.5l-0.3,2.4l10.5,1.4l0.3-2.4l-3.9-0.5L48.4,73z"/>
                <path d="M39.7,71.6c-0.6-1-1.4-1.9-2.4-2.5c-1.3-0.8-2.6-1.2-3.9-1.1C32.2,68,31,68.5,30,69.5l1.7,1.8 c0.7-0.5,1.4-0.8,2.1-0.9c0.7-0.1,1.4,0.2,2.2,0.7c0.6,0.4,1.1,0.9,1.4,1.6c0.3,0.6,0.4,1.4,0.3,2.2c-0.1,0.8-0.4,1.7-1,2.5 c-0.6,0.9-1.2,1.5-1.9,2c-0.7,0.4-1.4,0.6-2.1,0.6c-0.7,0-1.4-0.2-2-0.7c-0.8-0.5-1.3-1.1-1.5-1.8c-0.2-0.7-0.3-1.4-0.1-2.2 l-2.3-0.8c-0.5,1.3-0.5,2.6,0,3.8c0.5,1.2,1.3,2.2,2.6,3c1,0.7,2.1,1,3.3,1.1c1.2,0.1,2.3-0.2,3.4-0.8c1.1-0.6,2.1-1.5,2.9-2.8 c0.8-1.3,1.3-2.6,1.4-3.8C40.5,73.7,40.2,72.6,39.7,71.6L39.7,71.6z"/>
                <path d="M30.8,63.1L25.1,66l-2.6-5.1l5.7-2.9L27,55.7l-12.7,6.5l1.2,2.4l4.8-2.5l2.6,5.1l-4.8,2.5l1.2,2.3L32,65.4 L30.8,63.1z"/>
                <path d="M50,5.6C25.5,5.6,5.6,25.5,5.6,50c0,24.5,19.9,44.4,44.4,44.4c24.5,0,44.4-19.9,44.4-44.4 C94.4,25.5,74.5,5.6,50,5.6z M50,92C26.9,92,8,73.1,8,50C8,26.9,26.9,8,50,8c23.1,0,42,18.8,42,42C92,73.1,73.1,92,50,92L50,92z"/>
            </g>
        </g>
        <g id="eye" data-v="100 72">
            <path style="fill: var(--sc-1, #ec6237)" d="M97.3,32.2c0.2-0.4,0.4-0.7,0.6-1.1c3.6-8,1.5-17.8-5.2-23.5c-1.7-1.5-3.9-2.2-6.2-2c-2.2,0.2-4.3,1.3-5.8,3 l-0.8,1c-0.7-1.9-1.7-3.5-3-4.9C75.4,3,73.4,2,71.1,1.8c-2.2-0.2-4.5,0.6-6.1,2.1l-4.2,3.8c-0.1,0.1-0.1,0.1-0.2,0.2 c-0.1-0.5-0.3-1-0.6-1.5c-1-2-2.8-3.5-5-4.2l-5.4-1.7C45.1-1,40.3,1.6,38.9,6.1c-0.1,0.4-0.2,0.7-0.3,1.1L35,3.9 c-1.7-1.5-3.9-2.3-6.1-2.1C26.6,2,24.5,3,23,4.7c-1.2,1.4-2.2,3.1-3,4.9l-0.8-1c-1.4-1.7-3.5-2.8-5.8-3c-2.2-0.2-4.5,0.5-6.2,2 C0.7,13.2-1.5,23.1,2.1,31c0.2,0.4,0.4,0.8,0.6,1.1C0.9,35.3,0,38.8,0,42.3c0,17.2,21,29.6,50,29.6s50-12.5,50-29.6 C100,38.8,99.1,35.3,97.3,32.2L97.3,32.2z"/>
            <path fill="white" d="M50,61.5c21.4,0,38.7-8.1,38.7-18.2c0-10-17.3-18.2-38.7-18.2c-21.4,0-38.7,8.1-38.7,18.2 C11.3,53.3,28.6,61.5,50,61.5z"/>
            <path style="fill: var(--sc-1, #ec6237)" d="M61.5,31.4c-2.9-3.2-7-4.9-11.5-4.9c-4.6,0-8.9,1.7-11.8,4.9c-3.1,2.9-4.8,7.3-4.8,11.9 c0,4.6,1.7,8.7,4.8,11.7C41.1,58.1,45.4,60,50,60c4.6,0,8.6-1.9,11.5-5.1c3.1-2.9,5-7,5-11.7C66.5,38.7,64.6,34.3,61.5,31.4z"/>
            <path style="fill: var(--sc-2, #e5d8ca)" d="M86.3,32.9c1.7-1.1,3-2.7,3.9-4.5c2-4.4,0.8-10.1-2.9-13.3l-3.6,4.4c1.8,1.5,2.4,4.3,1.4,6.5 c-0.7,1.6-2.4,2.8-4.1,3.1c-2.8-1.6-6.1-2.9-9.8-4c0.9-1.3,1.5-2.7,1.8-4.2c0.6-3.8-0.7-7.6-2.3-9.5l-4.3,3.8 c0.4,0.5,1.3,2.6,0.9,4.8c-0.2,1.1-1,2.4-2.1,3.2c-0.2,0.1-0.4,0.3-0.6,0.4c-3.7-0.7-7.6-1.1-11.7-1.2c-2-2.7-1.6-7.5-0.5-10.9 L47,9.7c-1.5,4.7-1.6,9.1-0.4,12.6c-3.9,0.2-7.6,0.6-11.1,1.2c-0.2-0.1-0.4-0.2-0.6-0.4c-1.1-0.8-2-2.1-2.1-3.2 c-0.3-2.2,0.5-4.3,0.9-4.8l-4.3-3.8c-1.6,1.8-2.9,5.7-2.3,9.5c0.2,1.5,0.8,2.9,1.8,4.2c-3.7,1.1-7,2.4-9.8,4 c-1.7-0.3-3.4-1.5-4.1-3.1c-1-2.1-0.3-5,1.4-6.5l-3.6-4.4C9,18.3,7.8,24,9.8,28.4c0.8,1.8,2.2,3.4,3.9,4.5c-3.3,3-5.2,6.6-5.2,10.4 c0,11.8,18.2,21.1,41.5,21.1c23.3,0,41.5-9.2,41.5-21.1C91.5,39.5,89.6,36,86.3,32.9z M59.4,53c-2.5,2.7-5.8,4.2-9.4,4.2 c-3.7,0-7.3-1.6-9.7-4.2l-0.2-0.2c-2.5-2.3-3.9-5.6-3.9-9.6s1.4-7.5,3.9-9.8l0.2-0.2c2.3-2.5,5.8-3.9,9.7-3.9 c3.8,0,7.1,1.4,9.4,3.9l0.2,0.2c2.6,2.4,4.1,6.1,4.1,9.8c0,3.7-1.5,7.1-4.1,9.6L59.4,53z M14.1,43.3c0-2.9,2.3-5.9,6.3-8.4 c0.4,0,0.9-0.1,1.3-0.1l-0.1-0.6c0.7-0.4,1.4-0.8,2.2-1.1c3.3-1.5,7-2.7,11.2-3.6c0.3,0.1,0.7,0.1,1,0.2c-3.4,3.4-5.4,8.4-5.4,13.7 c0,5.4,2,10.2,5.6,13.7c0.2,0.2,0.3,0.3,0.5,0.5c-4.8-0.9-9.2-2.2-12.9-3.9C17.7,50.6,14.1,46.9,14.1,43.3z M76.2,53.5 c-3.8,1.8-8.3,3.1-13.2,4c0.2-0.2,0.4-0.3,0.6-0.5c3.8-3.6,5.9-8.4,5.9-13.7c0-5.2-2-10.1-5.6-13.6c0.4,0,0.8-0.1,1.2-0.2 c4.1,0.9,7.9,2,11.1,3.6c0.8,0.4,1.5,0.8,2.2,1.1l-0.1,0.6c0.4,0.1,0.9,0.1,1.3,0.1c4,2.6,6.3,5.5,6.3,8.4 C85.9,46.9,82.3,50.6,76.2,53.5z"/>
        </g>
	</def>
</svg>